<?xml version="1.0" encoding="utf-8"?>
<svg version="1.1" id="Layer_1" x="0px" y="0px" viewBox="105.299 114.403 360 360" style="enable-background:new 0 0 1614.5 293.7;" xmlns="http://www.w3.org/2000/svg">
  <style type="text/css">
	.st0{enable-background:new    ;}
	.st1{fill:#2F4555;}
	.st2{fill:#7FBAA3;}
	.st3{fill:#FFFFFF;}
	.st4{fill:#F1F2F2;}
	.st5{fill:url(#SVGID_1_);}
	.st6{fill:url(#SVGID_2_);}
</style>
  <g transform="matrix(0.999288, 0, 0, 0.910477, 0.545611, 26.483692)" style=""/>
  <circle style="fill: rgb(125, 186, 164);" cx="285.299" cy="294.403" r="180"/>
  <g transform="matrix(0.91242, 0, 0, 1.469634, 54.912933, 49.855968)" style="">
    <g transform="matrix(1.264222, 0, 0, 1.264222, -34.35199, -30.755474)">
      <g>
        <path class="st3" d="M221.7,195.4c0-1.5-0.1-2.8-0.2-4.1c-1.6-20-12-35-28.6-41.2c-7.8-2.9-15.9-2.8-24.5-2.8c-1.4,0-2.9,0-4.4,0 h-16.5c-13.4,0-26.8,0-40.2,0v-9.2c13.4,0,26.8,0,40.2,0H164c1.4,0,2.9,0,4.3,0c9.1-0.1,18.5-0.2,27.8,3.3 c19.8,7.4,32.7,25.8,34.5,49.1c0.1,1.5,0.2,3.2,0.2,4.8L221.7,195.4L221.7,195.4z" style=""/>
      </g>
      <g>
        <path class="st3" d="M209.1,195.4H200c0-6.8-1.6-19-12.1-25.1c-6.6-3.9-26.6-3.5-28.2-3.5l0,0H98.2v-9.2h61.5l0,0 c1.5,0,24-0.4,32.8,4.7C203.2,168.6,209.1,180.3,209.1,195.4z" style=""/>
      </g>
      <g>
        <path class="st4" d="M252.6,195.4l-9-10.2c6.4-28,33.8-27.8,53.9-27.6c1.6,0,58.1,0,58.1,0v9.2c0,0-56.6,0-58.2,0 C273.8,166.6,256.3,165.3,252.6,195.4z" style="fill: rgb(255, 255, 255);"/>
      </g>
      <g>
        <path class="st3" d="M243.6,163.9l-7.2-5.6c15.7-20.2,37.6-20.1,58.8-20.1h51.2v9.2h-51.2C274.5,147.3,256.6,147.2,243.6,163.9z" style=""/>
      </g>
      <g>
        <path class="st3" d="M233.8,144.9l-8.1-4.3c12.7-24.1,39.4-24.2,60.9-24.2c0.1,0,0.1,0,0.2,0h50.5v9.2h-50.5c-0.1,0-0.2,0-0.2,0 C265.5,125.6,243.9,125.7,233.8,144.9z" style=""/>
      </g>
      <g>
        <path class="st5" d="M 252.616 155.174 C 251.116 152.574 249.784 150.252 247.884 147.752 C 243.084 151.252 241 152.9 236.4 158.3 L 243.6 163.9 C 246.9 159.6 248.716 157.474 252.616 155.174 Z" style="fill-rule: nonzero; fill: rgb(255, 255, 255);"/>
        <path class="st6" d="M232.1,131.5c-2.5,2.7-4.5,5.4-6.4,9.1l8.1,4.3c1.7-3.3,3.1-5.3,5.5-7.6C236.9,135.3,234.7,133.2,232.1,131.5 z" style="fill: rgb(255, 255, 255);"/>
      </g>
      <g>
        <g>
          <path class="st4" d="M243.4,195.4c-0.3-10.6-2.2-20.1-5.6-28.4c-14.6-36-52.4-41.3-73.6-41.3h-47.8v-9.2h47.8 c18.1,0,34.8,3.6,48.1,10.4c15.9,8.1,27.3,20.4,33.9,36.7c3.8,9.4,5.9,20.2,6.3,31.9h-9.1V195.4z" style="fill: rgb(255, 255, 255);"/>
        </g>
      </g>
    </g>
  </g>
</svg>