<?xml version="1.0" encoding="UTF-8" standalone="no"?>
<svg
   xmlns:dc="http://purl.org/dc/elements/1.1/"
   xmlns:cc="http://creativecommons.org/ns#"
   xmlns:rdf="http://www.w3.org/1999/02/22-rdf-syntax-ns#"
   xmlns:svg="http://www.w3.org/2000/svg"
   xmlns="http://www.w3.org/2000/svg"
   style="enable-background:new 0 0 1614.5 293.7;"
   viewBox="0 0 1166.988 293.7"
   y="0px"
   x="0px"
   id="Layer_1"
   version="1.1">
  <metadata
     id="metadata139">
    <rdf:RDF>
      <cc:Work
         rdf:about="">
        <dc:format>image/svg+xml</dc:format>
        <dc:type
           rdf:resource="http://purl.org/dc/dcmitype/StillImage" />
      </cc:Work>
    </rdf:RDF>
  </metadata>
  <defs
     id="defs137" />
  <style
     id="style2"
     type="text/css">
	.st0{enable-background:new    ;}
	.st1{fill:#2F4555;}
	.st2{fill:#7FBAA3;}
	.st3{fill:#FFFFFF;}
	.st4{fill:#F1F2F2;}
	.st5{fill:url(#SVGID_1_);}
	.st6{fill:url(#SVGID_2_);}
</style>
  <g
     id="g48"
     transform="matrix(1.012244, 0, 0, 1.112043, -27.788002, -21.949295)"
     style="">
    <g
       id="g46"
       class="st0">
      <path
         id="path4"
         d="M562.7,192l0.5-0.6c0.3-0.4,0.6-0.6,1.1-0.2c0.2,0.2,2.7,2.4,5.7,2.4c2.7,0,4.4-1.7,4.4-3.7 c0-2.3-2-3.6-5.8-5.2c-3.6-1.5-5.8-2.9-5.8-6.7c0-2.2,1.8-5.9,7-5.9c3.2,0,5.6,1.7,5.6,1.7c0.2,0.1,0.6,0.5,0.2,1.1l-0.3,0.6 c-0.3,0.5-0.6,0.5-1.2,0.2c-1.4-0.8-2.5-1.3-4.4-1.3c-3.5,0-4.5,2.2-4.5,3.6c0,2.3,1.7,3.4,4.4,4.5c4.4,1.8,7.3,3.5,7.3,7.3 c0,3.4-3.3,6.1-7.1,6.1c-3.9,0-6.5-2.3-6.9-2.7C562.6,192.9,562.2,192.6,562.7,192z"
         class="st1" />
      <path
         id="path6"
         d="M590.4,173.1c0-0.3,0.3-0.6,0.6-0.6h13c0.4,0,0.6,0.3,0.6,0.6v1c0,0.3-0.3,0.6-0.6,0.6h-11v8h9.4 c0.3,0,0.6,0.3,0.6,0.6v1c0,0.4-0.3,0.6-0.6,0.6h-9.4v8.4h11c0.4,0,0.6,0.3,0.6,0.6v1c0,0.3-0.3,0.6-0.6,0.6h-13 c-0.4,0-0.6-0.3-0.6-0.6V173.1z"
         class="st1" />
      <path
         id="path8"
         d="M618.3,173.1c0-0.3,0.3-0.6,0.6-0.6h8.5c3.9,0,7.2,3.1,7.2,7c0,3-2,5.6-4.9,6.7l4.5,8.4c0.2,0.4,0,1-0.6,1 h-1.6c-0.4,0-0.6-0.2-0.7-0.5l-4.3-8.5h-6.3v8.4c0,0.3-0.3,0.6-0.6,0.6h-1.3c-0.4,0-0.6-0.3-0.6-0.6V173.1z M627.3,184.3 c2.5,0,4.7-2.1,4.7-4.8c0-2.5-2.2-4.6-4.7-4.6h-6.4v9.4H627.3z"
         class="st1" />
      <path
         id="path10"
         d="M645.6,173.3c-0.2-0.4,0.1-0.9,0.6-0.9h1.3c0.3,0,0.5,0.2,0.6,0.4l8.2,18.4h0.1l8.2-18.4 c0.1-0.2,0.3-0.4,0.6-0.4h1.3c0.5,0,0.8,0.4,0.6,0.9l-10,22.1c-0.1,0.2-0.3,0.4-0.6,0.4h-0.3c-0.2,0-0.5-0.2-0.6-0.4L645.6,173.3z "
         class="st1" />
      <path
         id="path12"
         d="M679.3,173.1c0-0.3,0.3-0.6,0.6-0.6h1.3c0.3,0,0.6,0.3,0.6,0.6v21.8c0,0.3-0.3,0.6-0.6,0.6h-1.3 c-0.3,0-0.6-0.3-0.6-0.6V173.1z"
         class="st1" />
      <path
         id="path14"
         d="M707.6,172.1c3.3,0,5.7,1.2,8,3.1c0.3,0.3,0.3,0.7,0,0.9l-0.9,0.9c-0.3,0.3-0.5,0.3-0.9,0 c-1.7-1.5-3.9-2.5-6.3-2.5c-5.2,0-9.2,4.4-9.2,9.5c0,5.1,4,9.4,9.2,9.4c2.9,0,4.5-1,6.3-2.5c0.3-0.3,0.6-0.2,0.9,0l0.8,0.8 c0.3,0.2,0.2,0.7,0,0.9c-2.2,2-4.9,3.2-7.8,3.2c-6.6,0-11.9-5.2-11.9-11.8C695.7,177.4,701,172.1,707.6,172.1z"
         class="st1" />
      <path
         id="path16"
         d="M729.3,173.1c0-0.3,0.3-0.6,0.6-0.6h1.3c0.3,0,0.6,0.3,0.6,0.6v21.8c0,0.3-0.3,0.6-0.6,0.6H730 c-0.3,0-0.6-0.3-0.6-0.6V173.1z"
         class="st1" />
      <path
         id="path18"
         d="M757.5,172.1c6.6,0,11.8,5.3,11.8,11.9c0,6.6-5.3,11.8-11.8,11.8s-11.8-5.2-11.8-11.8 C745.7,177.4,751,172.1,757.5,172.1z M757.5,193.5c5.2,0,9.5-4.3,9.5-9.5c0-5.2-4.3-9.6-9.5-9.6s-9.5,4.3-9.5,9.6 C748,189.2,752.3,193.5,757.5,193.5z"
         class="st1" />
      <path
         id="path20"
         d="M781.9,192l0.5-0.6c0.3-0.4,0.6-0.6,1.1-0.2c0.2,0.2,2.7,2.4,5.7,2.4c2.7,0,4.4-1.7,4.4-3.7 c0-2.3-2-3.6-5.8-5.2c-3.6-1.5-5.8-2.9-5.8-6.7c0-2.2,1.8-5.9,7-5.9c3.2,0,5.6,1.7,5.6,1.7c0.2,0.1,0.6,0.5,0.2,1.1l-0.3,0.6 c-0.3,0.5-0.6,0.5-1.2,0.2c-1.4-0.8-2.5-1.3-4.4-1.3c-3.5,0-4.5,2.2-4.5,3.6c0,2.3,1.7,3.4,4.4,4.5c4.4,1.8,7.3,3.5,7.3,7.3 c0,3.4-3.3,6.1-7.1,6.1c-3.9,0-6.5-2.3-6.9-2.7C781.9,192.9,781.5,192.6,781.9,192z"
         class="st1" />
      <path
         id="path22"
         d="M826.6,173.1c0-0.3,0.3-0.6,0.6-0.6h1.3c0.3,0,0.6,0.3,0.6,0.6v20.2h9.5c0.4,0,0.6,0.3,0.6,0.6v1 c0,0.3-0.3,0.6-0.6,0.6h-11.4c-0.4,0-0.6-0.3-0.6-0.6V173.1z"
         class="st1" />
      <path
         id="path24"
         d="M851.8,173.1c0-0.3,0.3-0.6,0.6-0.6h1.3c0.3,0,0.6,0.3,0.6,0.6v21.8c0,0.3-0.3,0.6-0.6,0.6h-1.3 c-0.3,0-0.6-0.3-0.6-0.6V173.1z"
         class="st1" />
      <path
         id="path26"
         d="M869.6,172.7c0-0.3,0.3-0.6,0.6-0.6h0.5c0.2,0,0.4,0.1,0.5,0.3l14.6,18.2c0,0,0,0,0.1,0v-17.5 c0-0.3,0.3-0.6,0.6-0.6h1.2c0.3,0,0.6,0.3,0.6,0.6v22.1c0,0.3-0.3,0.6-0.6,0.6h-0.3c-0.2,0-0.4-0.1-0.5-0.3L872.1,177h0v17.9 c0,0.3-0.3,0.6-0.6,0.6h-1.2c-0.3,0-0.6-0.3-0.6-0.6V172.7z"
         class="st1" />
      <path
         id="path28"
         d="M914.1,172.1c3.3,0,5.7,1.2,8,3.1c0.3,0.3,0.3,0.7,0,0.9c-0.3,0.3-0.7,0.6-0.9,0.9c-0.3,0.3-0.5,0.3-0.9,0 c-1.7-1.5-4-2.6-6.2-2.6c-5.2,0-9.1,4.3-9.1,9.4c0,5.1,3.9,9.5,9.1,9.5c3.6,0,5.9-1.4,5.9-1.4v-4.6h-3.8c-0.4,0-0.6-0.3-0.6-0.6 v-1.2c0-0.4,0.3-0.6,0.6-0.6h5.7c0.3,0,0.6,0.3,0.6,0.6v7.5c0,0.2-0.1,0.4-0.3,0.5c0,0-3.4,2.2-8.1,2.2c-6.6,0-11.9-5.2-11.9-11.8 C902.2,177.4,907.5,172.1,914.1,172.1z"
         class="st1" />
      <path
         id="path30"
         d="M936.5,173.1c0-0.3,0.3-0.6,0.6-0.6h1.2c0.4,0,0.6,0.3,0.6,0.6v13.8c0,3.7,2.3,6.5,6.2,6.5 c3.9,0,6.2-2.7,6.2-6.5v-13.9c0-0.3,0.3-0.6,0.6-0.6h1.2c0.3,0,0.6,0.3,0.6,0.6v14c0,5-3.6,8.7-8.7,8.7c-5.2,0-8.7-3.7-8.7-8.7 V173.1z M940.1,167.9c0-1,0.8-1.7,1.7-1.7c1,0,1.7,0.8,1.7,1.7c0,0.9-0.8,1.7-1.7,1.7C940.8,169.6,940.1,168.8,940.1,167.9z M947,167.9c0-1,0.8-1.7,1.7-1.7c1,0,1.7,0.8,1.7,1.7c0,0.9-0.8,1.7-1.7,1.7C947.7,169.6,947,168.8,947,167.9z"
         class="st1" />
      <path
         id="path32"
         d="M967,169c-0.1-0.3,0-0.5,0.2-0.6l4.9-2.8c0.2-0.1,0.7-0.2,0.9,0.1l0.6,1.2c0.1,0.3,0.1,0.6-0.2,0.7l-5.3,2.2 c-0.5,0.2-0.6,0.2-0.8-0.1L967,169z M969,173.1c0-0.3,0.3-0.6,0.6-0.6h1.3c0.3,0,0.6,0.3,0.6,0.6v21.8c0,0.3-0.3,0.6-0.6,0.6h-1.3 c-0.3,0-0.6-0.3-0.6-0.6V173.1z"
         class="st1" />
      <path
         id="path34"
         d="M985.6,192l0.5-0.6c0.3-0.4,0.6-0.6,1.1-0.2c0.2,0.2,2.7,2.4,5.7,2.4c2.7,0,4.4-1.7,4.4-3.7 c0-2.3-2-3.6-5.8-5.2c-3.6-1.5-5.8-2.9-5.8-6.7c0-2.2,1.8-5.9,7-5.9c3.2,0,5.6,1.7,5.6,1.7c0.2,0.1,0.6,0.5,0.2,1.1l-0.3,0.6 c-0.3,0.5-0.6,0.5-1.2,0.2c-1.4-0.8-2.5-1.3-4.4-1.3c-3.5,0-4.5,2.2-4.5,3.6c0,2.3,1.7,3.4,4.4,4.5c4.4,1.8,7.3,3.5,7.3,7.3 c0,3.4-3.3,6.1-7.1,6.1c-3.9,0-6.5-2.3-6.9-2.7C985.5,192.9,985.1,192.6,985.6,192z"
         class="st1" />
      <path
         id="path36"
         d="M1017.4,174.7h-5.7c-0.4,0-0.6-0.3-0.6-0.6v-1c0-0.3,0.3-0.6,0.6-0.6h13.9c0.4,0,0.6,0.3,0.6,0.6v1 c0,0.3-0.3,0.6-0.6,0.6h-5.7v20.2c0,0.3-0.3,0.6-0.6,0.6h-1.2c-0.3,0-0.6-0.3-0.6-0.6V174.7z"
         class="st1" />
      <path
         id="path38"
         d="M1039.2,173.1c0-0.3,0.3-0.6,0.6-0.6h1.3c0.3,0,0.6,0.3,0.6,0.6v21.8c0,0.3-0.3,0.6-0.6,0.6h-1.3 c-0.3,0-0.6-0.3-0.6-0.6V173.1z"
         class="st1" />
      <path
         id="path40"
         d="M1067.5,172.1c3.3,0,5.7,1.2,8,3.1c0.3,0.3,0.3,0.7,0,0.9l-0.9,0.9c-0.3,0.3-0.5,0.3-0.9,0 c-1.7-1.5-3.9-2.5-6.3-2.5c-5.2,0-9.2,4.4-9.2,9.5c0,5.1,4,9.4,9.2,9.4c2.9,0,4.5-1,6.3-2.5c0.3-0.3,0.6-0.2,0.9,0l0.8,0.8 c0.3,0.2,0.2,0.7,0,0.9c-2.2,2-4.9,3.2-7.8,3.2c-6.6,0-11.9-5.2-11.9-11.8C1055.6,177.4,1060.9,172.1,1067.5,172.1z"
         class="st1" />
      <path
         id="path42"
         d="M1099.2,172.1c6.6,0,11.8,5.3,11.8,11.9c0,6.6-5.3,11.8-11.8,11.8c-6.6,0-11.8-5.2-11.8-11.8 C1087.4,177.4,1092.6,172.1,1099.2,172.1z M1099.2,193.5c5.2,0,9.5-4.3,9.5-9.5c0-5.2-4.3-9.6-9.5-9.6s-9.5,4.3-9.5,9.6 C1089.7,189.2,1093.9,193.5,1099.2,193.5z"
         class="st1" />
      <path
         id="path44"
         d="M1123.6,192l0.5-0.6c0.3-0.4,0.6-0.6,1.1-0.2c0.2,0.2,2.7,2.4,5.7,2.4c2.7,0,4.4-1.7,4.4-3.7 c0-2.3-2-3.6-5.8-5.2c-3.6-1.5-5.8-2.9-5.8-6.7c0-2.2,1.8-5.9,7-5.9c3.2,0,5.6,1.7,5.6,1.7c0.2,0.1,0.6,0.5,0.2,1.1l-0.3,0.6 c-0.3,0.5-0.6,0.5-1.2,0.2c-1.4-0.8-2.5-1.3-4.4-1.3c-3.5,0-4.5,2.2-4.5,3.6c0,2.3,1.7,3.4,4.4,4.5c4.4,1.8,7.3,3.5,7.3,7.3 c0,3.4-3.3,6.1-7.1,6.1c-3.9,0-6.5-2.3-6.9-2.7C1123.5,192.9,1123.1,192.6,1123.6,192z"
         class="st1" />
    </g>
  </g>
  <polygon
     id="polygon50"
     points="405.5,0 0.4,0 0.4,294.7 504.7,294.7 "
     class="st2" />
  <g
     id="g98">
    <g
       id="g54">
      <path
         id="path52"
         d="M221.7,195.4c0-1.5-0.1-2.8-0.2-4.1c-1.6-20-12-35-28.6-41.2c-7.8-2.9-15.9-2.8-24.5-2.8c-1.4,0-2.9,0-4.4,0 h-16.5c-13.4,0-26.8,0-40.2,0v-9.2c13.4,0,26.8,0,40.2,0H164c1.4,0,2.9,0,4.3,0c9.1-0.1,18.5-0.2,27.8,3.3 c19.8,7.4,32.7,25.8,34.5,49.1c0.1,1.5,0.2,3.2,0.2,4.8L221.7,195.4L221.7,195.4z"
         class="st3" />
    </g>
    <g
       id="g58">
      <path
         id="path56"
         d="M209.1,195.4H200c0-6.8-1.6-19-12.1-25.1c-6.6-3.9-26.6-3.5-28.2-3.5l0,0H98.2v-9.2h61.5l0,0 c1.5,0,24-0.4,32.8,4.7C203.2,168.6,209.1,180.3,209.1,195.4z"
         class="st3" />
    </g>
    <g
       id="g62">
      <path
         id="path60"
         d="M252.6,195.4l-9-10.2c6.4-28,33.8-27.8,53.9-27.6c1.6,0,58.1,0,58.1,0v9.2c0,0-56.6,0-58.2,0 C273.8,166.6,256.3,165.3,252.6,195.4z"
         class="st4" />
    </g>
    <g
       id="g66">
      <path
         id="path64"
         d="M243.6,163.9l-7.2-5.6c15.7-20.2,37.6-20.1,58.8-20.1h51.2v9.2h-51.2C274.5,147.3,256.6,147.2,243.6,163.9z"
         class="st3" />
    </g>
    <g
       id="g70">
      <path
         id="path68"
         d="M233.8,144.9l-8.1-4.3c12.7-24.1,39.4-24.2,60.9-24.2c0.1,0,0.1,0,0.2,0h50.5v9.2h-50.5c-0.1,0-0.2,0-0.2,0 C265.5,125.6,243.9,125.7,233.8,144.9z"
         class="st3" />
    </g>
    <g
       id="g90">
      <linearGradient
         gradientTransform="matrix(1 0 0 -1 0 294.4601)"
         y2="134.4429"
         x2="239.5685"
         y1="142.2116"
         x1="250.6023"
         gradientUnits="userSpaceOnUse"
         id="SVGID_1_">
        <stop
           id="stop72"
           style="stop-color:#FFFFFF"
           offset="0" />
        <stop
           id="stop74"
           style="stop-color:#F4F5F5"
           offset="0.4408" />
        <stop
           id="stop76"
           style="stop-color:#F1F2F2"
           offset="1" />
      </linearGradient>
      <path
         id="path79"
         d="M252.7,155.3c-1.5-2.6-3-5.3-4.9-7.8c-4.8,3.5-6.8,5.4-11.4,10.8l7.2,5.6 C246.9,159.6,248.8,157.6,252.7,155.3z"
         class="st5" />
      <linearGradient
         gradientTransform="matrix(1 0 0 -1 0 294.4601)"
         y2="153.0842"
         x2="229.5004"
         y1="159.6144"
         x1="236.5935"
         gradientUnits="userSpaceOnUse"
         id="SVGID_2_">
        <stop
           id="stop81"
           style="stop-color:#FFFFFF"
           offset="0" />
        <stop
           id="stop83"
           style="stop-color:#F6F7F7"
           offset="0.3819" />
        <stop
           id="stop85"
           style="stop-color:#F1F2F2"
           offset="1" />
      </linearGradient>
      <path
         id="path88"
         d="M232.1,131.5c-2.5,2.7-4.5,5.4-6.4,9.1l8.1,4.3c1.7-3.3,3.1-5.3,5.5-7.6C236.9,135.3,234.7,133.2,232.1,131.5 z"
         class="st6" />
    </g>
    <g
       id="g96">
      <g
         id="g94">
        <path
           id="path92"
           d="M243.4,195.4c-0.3-10.6-2.2-20.1-5.6-28.4c-14.6-36-52.4-41.3-73.6-41.3h-47.8v-9.2h47.8 c18.1,0,34.8,3.6,48.1,10.4c15.9,8.1,27.3,20.4,33.9,36.7c3.8,9.4,5.9,20.2,6.3,31.9h-9.1V195.4z"
           class="st4" />
      </g>
    </g>
  </g>
  <g
     id="g132"
     transform="matrix(1.012244, 0, 0, 1.056619, -27.788002, -13.668907)"
     style=""
     class="st0">
    <path
       id="path100"
       d="M580,113h4.8v25.5c0,1.7-0.5,3.4-1.4,5.1c-0.3,0.5-0.7,1.1-1.2,1.7c-0.7,0.8-1.2,1.3-1.7,1.6 c-0.7,0.5-1.4,1-2,1.3c-1.5,0.7-3,1.1-4.4,1.1h-2.5c-1.6,0-3.1-0.4-4.8-1.3c-0.6-0.3-1.2-0.7-1.9-1.3c-0.3-0.3-0.7-0.6-1.1-1.1 c-0.6-0.7-1.1-1.4-1.4-1.8c-0.2-0.3-0.5-0.9-0.8-1.6c-0.5-1.3-0.7-2.6-0.7-3.8v-1.9l0,0h4.7l0,0v1.7c0,1.5,0.6,2.9,1.7,4.1 c0.5,0.5,0.8,0.8,1.1,0.9c1,0.7,2.2,1.1,3.3,1.1h2.2c1.2,0,2.4-0.4,3.6-1.3c0.5-0.4,0.9-0.8,1.2-1.2c0.8-1.2,1.3-2.4,1.3-3.8 L580,113L580,113z"
       class="st2" />
    <path
       id="path102"
       d="M598.3,113h4.6l0,0.1v22.1c0,2.7,0.5,4.6,1.4,5.9c0.8,1.4,2.2,2.5,4.2,3.2c0.7,0.2,1.5,0.3,2.1,0.3h3.6 c2.8,0,5-1.3,6.6-3.8c0.7-1.4,1.1-3,1.1-4.8V113l0.1-0.1h4.7l0.1,0.1v21.6c0,2.9-0.3,5-0.8,6.3c-1,2.9-2.7,5-5,6.5 c-2,1.3-4.4,1.9-7.3,1.9h-2.4c-3.8,0-6.8-1.1-9.1-3.4c-1-1-1.8-2-2.3-3c-1.1-2.1-1.6-4.4-1.6-6.8L598.3,113L598.3,113z"
       class="st2" />
    <path
       id="path104"
       d="M640.1,113h4.7l0,0v31.5h15.8l0,0v4.7l0,0h-20.5l0,0L640.1,113L640.1,113z"
       class="st2" />
    <path
       id="path106"
       d="M670.4,113h4.7l0,0v36.3l0,0h-4.7l0,0L670.4,113L670.4,113z"
       class="st2" />
    <path
       id="path108"
       d="M688.7,113h19.5l0,0v4.8h-14.8v11h11.7l0,0v4.7l0,0h-11.7v11h14.8v4.8l0,0h-19.5l0,0L688.7,113L688.7,113z"
       class="st2" />
    <path
       id="path110"
       d="M716.3,113h24.1l0,0v4.7l0,0h-9.6v31.5l0,0H726l0,0v-31.5h-9.6l0,0L716.3,113L716.3,113z"
       class="st2" />
    <path
       id="path112"
       d="M765.9,113c0,0,0.8,1.8,2.2,5.3l12.6,31l0,0h-5.2c-0.1,0-0.3-0.6-0.7-1.7l-2.5-6.2H755l-3.2,7.8h-5.1v0 l12.6-31l2.2-5.3H765.9z M757,136.7h13.3l-6.6-16.4c0,0-1,2.2-2.7,6.7L757,136.7z"
       class="st2" />
    <path
       id="path114"
       d="M808.3,113h9.5c4.4,0,8.3,1.5,11.9,4.4c1.4,1.3,2.3,2.2,2.6,2.8c2.4,3.3,3.7,6.9,3.7,10.8v0.3 c0,4.8-1.8,9.1-5.5,12.9c-2,1.8-4,3.1-5.9,3.8c-2.2,0.9-4.4,1.3-6.5,1.3h-9.7l-0.1-0.1L808.3,113L808.3,113z M813,117.8v26.7h4.4 c4.2,0,7.8-1.6,10.6-4.7c2.2-2.6,3.3-5.5,3.3-8.7c0-3.2-1.1-6.2-3.3-8.8c-1.3-1.4-2.3-2.2-3.1-2.6c-0.6-0.5-1.7-0.9-3.1-1.4 c-1.2-0.4-2.9-0.6-4.9-0.6L813,117.8L813,117.8z"
       class="st2" />
    <path
       id="path116"
       d="M863.4,113c0,0,0.8,1.8,2.2,5.3l12.6,31l0,0h-5.2c-0.1,0-0.3-0.6-0.7-1.7l-2.5-6.2h-17.3l-3.2,7.8h-5.1v0 l12.6-31l2.2-5.3H863.4z M854.4,136.7h13.3l-6.6-16.4c0,0-1,2.2-2.7,6.7L854.4,136.7z"
       class="st2" />
    <path
       id="path118"
       d="M888.1,113h5.8c0.1,0.1,2.3,4.9,6.5,14.4l6.7,14.9h0l13.1-29.3h5.8l0.1,0.1v36.2l-0.1,0.1h-4.9l0-0.1v-26.5h0 l-11.8,26.4l-0.1,0.1h-4.1c0,0-0.3-0.5-0.7-1.6l-11.2-24.9h0v26.5l0,0.1h-4.9l-0.1-0.1L888.1,113L888.1,113z"
       class="st2" />
    <path
       id="path120"
       d="M939.8,113h12c3.9,0,6.9,1.3,9.2,3.9c1.2,1.5,1.8,3.4,1.8,5.5v0.5c0,2.8-1.1,5.1-3.2,7.1v0 c0.5,0.2,1.1,0.8,2,1.6c1.6,1.7,2.4,3.7,2.4,5.9v1.8c0,3.4-1.5,6.2-4.6,8.3c-1.6,0.8-2.5,1.2-2.9,1.2c-1,0.4-2.5,0.5-4.4,0.5h-12.3 l-0.1-0.1L939.8,113L939.8,113z M944.5,132.8v11.7h8.3c2.8,0,4.9-1,6-3.1c0.3-0.7,0.5-1.6,0.5-2.6v-0.9c0-2.2-1.1-3.6-3.3-4.4 c-1.1-0.5-2.4-0.7-3.9-0.7L944.5,132.8L944.5,132.8z M944.5,117.7V128h6.9c2.9,0,5-1,6.2-3.1c0.3-0.6,0.4-1.2,0.4-1.7V122 c0-1.8-1.3-3.1-3.8-3.9c-0.7-0.2-1.8-0.3-3.2-0.3H944.5z"
       class="st2" />
    <path
       id="path122"
       d="M991.1,113L991.1,113c4.9,0,9.1,1.9,12.7,5.6c3.2,3.7,4.8,7.9,4.8,12.5c0,5.1-1.9,9.6-5.7,13.4 c-3.5,3.2-7.4,4.7-11.8,4.7c-4.3,0-8.2-1.5-11.7-4.6c-1.5-1.6-2.5-2.8-3-3.7c-1.9-3-2.8-6.3-2.8-9.8v-0.1c0-5.1,1.9-9.6,5.8-13.5 l1.7-1.4C984.2,114.1,987.5,113,991.1,113z M978.5,131.1c0,3.9,1.5,7.3,4.5,10.2c2.5,2.1,5.2,3.2,8.3,3.2c4,0,7.3-1.8,10.1-5.3 c1.7-2.5,2.6-5.1,2.6-7.9V131c0-3.4-1.2-6.5-3.6-9.2c-2.6-2.7-5.7-4.1-9.1-4.1c-3.8,0-7.1,1.6-9.8,4.9 C979.4,125.2,978.5,128.1,978.5,131.1z"
       class="st2" />
    <path
       id="path124"
       d="M1020.2,113h4.7l0,0v31.5h15.8l0,0v4.7l0,0h-20.5l0,0L1020.2,113L1020.2,113z"
       class="st2" />
    <path
       id="path126"
       d="M1050.4,113h19.5l0,0v4.8h-14.8v11h11.7l0,0v4.7l0,0h-11.7v11h14.8v4.8l0,0h-19.5l0,0L1050.4,113L1050.4,113z"
       class="st2" />
    <path
       id="path128"
       d="M1082,113h5.2l17.4,26l1.6,2.4h0V113l0.1-0.1h4.7l0.1,0.1v36.2l-0.1,0.1h-5.2c-0.9-1.3-4.2-6.2-9.9-14.8 l-9.2-13.6v28.3l0,0.1h-4.6l-0.1-0.1L1082,113L1082,113z"
       class="st2" />
    <path
       id="path130"
       d="M1140.4,113c0,0,0.8,1.8,2.2,5.3l12.6,31l0,0h-5.2c-0.1,0-0.3-0.6-0.7-1.7l-2.5-6.2h-17.3l-3.2,7.8h-5.1v0 l12.6-31l2.2-5.3H1140.4z M1131.4,136.7h13.3l-6.6-16.4c0,0-1,2.2-2.7,6.7L1131.4,136.7z"
       class="st2" />
  </g>
</svg>
