<?xml version="1.0" standalone="no"?>
<!DOCTYPE svg PUBLIC "-//W3C//DTD SVG 20010904//EN"
 "http://www.w3.org/TR/2001/REC-SVG-20010904/DTD/svg10.dtd">
<svg version="1.0" xmlns="http://www.w3.org/2000/svg"
 width="655.000000pt" height="287.000000pt" viewBox="0 0 655.000000 287.000000"
 preserveAspectRatio="xMidYMid meet">

<g transform="translate(0.000000,287.000000) scale(0.100000,-0.100000)"
fill="#000000" stroke="none">
<path d="M4345 2219 c-353 -14 -564 -70 -770 -204 -66 -42 -191 -166 -215
-211 l-16 -29 72 -72 72 -71 28 41 c106 161 282 268 520 316 163 33 357 41
1042 41 l652 0 0 100 0 100 -597 -2 c-329 0 -683 -5 -788 -9z"/>
<path d="M720 1650 l0 -99 848 -3 847 -4 92 -27 c255 -74 452 -235 578 -474
64 -120 125 -359 125 -490 l0 -53 101 0 102 0 -7 97 c-25 335 -147 617 -360
828 -177 176 -370 272 -621 310 -83 12 -239 15 -902 15 l-803 0 0 -100z"/>
<path d="M4389 1740 c-206 -19 -352 -58 -503 -134 -95 -49 -246 -155 -246
-174 0 -4 21 -49 47 -100 l47 -92 21 24 c46 53 155 134 235 173 96 46 251 88
385 103 52 6 399 10 823 10 l732 0 0 100 0 100 -727 -1 c-401 -1 -766 -5 -814
-9z"/>
<path d="M520 1231 l0 -101 749 0 c1076 0 1153 -9 1301 -160 97 -97 142 -202
162 -373 l12 -98 95 3 96 3 -3 75 c-14 294 -157 542 -379 654 -61 30 -144 51
-293 73 -86 13 -253 17 -922 20 l-818 5 0 -101z"/>
</g>
</svg>
